<?xml version="1.0" encoding="utf-8"?>
<!-- Generator: Adobe Illustrator 24.0.0, SVG Export Plug-In . SVG Version: 6.00 Build 0)  -->
<svg version="1.1" id="Layer_1" xmlns="http://www.w3.org/2000/svg" xmlns:xlink="http://www.w3.org/1999/xlink" x="0px" y="0px"
	 viewBox="0 0 1722.9 1071.6" style="enable-background:new 0 0 1722.9 1071.6;" xml:space="preserve">
<style type="text/css">
	.st0{fill:#F9F9F9;stroke:#DFDFDF;stroke-width:13.8462;stroke-linejoin:round;stroke-miterlimit:19.5814;}
	.st1{fill:#5F6368;}
	.st2{fill:#4285F4;}
	.st3{fill:#34A853;}
	.st4{fill:#FABB05;}
	.st5{fill:#E94235;}
</style>
<path class="st0" d="M1716,1006.8c0,32-25.9,57.9-57.9,57.9H64.8c-32,0-57.9-25.9-57.9-57.9v-942c0-32,25.9-57.9,57.9-57.9h1593.3
	c32,0,57.9,25.9,57.9,57.9V1006.8z"/>
<g id="GPay-Light-themed-buttons">
	<g id="GPAY---SVGs" transform="translate(-185.000000, -400.000000)">
		<g id="GPay-Brand-Mark" transform="translate(185.000000, 400.000000)">
			<g id="GPay" transform="translate(0.261474, 0.261474)">
				<g id="Pay" transform="translate(17.615069, 0.825706)">
					<path id="Fill-1" class="st1" d="M826.9,360.5v122h75.3c18.1,0,33.1-6,45.2-18.1c12.1-12.1,18.1-27.1,18.1-43.7
						c0-16.6-6-30.1-18.1-42.2c-12.1-12.1-27.1-18.1-45.2-18.1H826.9L826.9,360.5z M826.9,526.2v141.6h-45.2V318.3h119
						c30.1,0,55.7,10.5,76.8,30.1c21.1,19.6,31.6,45.2,31.6,73.8c0,30.1-10.5,54.2-31.6,73.8c-21.1,19.6-46.7,30.1-76.8,30.1H826.9
						L826.9,526.2z"/>
					<path id="Fill-3" class="st1" d="M1057.4,594c0,12.1,4.5,21.1,15.1,28.6c10.5,7.5,21.1,12.1,34.6,12.1
						c19.6,0,36.2-7.5,51.2-21.1s22.6-30.1,22.6-49.7c-13.6-10.5-33.1-16.6-58.8-16.6c-18.1,0-33.1,4.5-45.2,13.6
						C1063.4,569.9,1057.4,582,1057.4,594 M1114.7,420.8c33.1,0,60.3,9,78.3,27.1c19.6,18.1,28.6,42.2,28.6,72.3v147.6h-43.7v-33.1
						l0,0c-18.1,27.1-43.7,40.7-73.8,40.7c-27.1,0-48.2-7.5-66.3-24.1c-18.1-15.1-27.1-34.6-27.1-58.8s9-45.2,28.6-58.8
						c18.1-15.1,43.7-22.6,75.3-22.6c27.1,0,48.2,4.5,66.3,15.1v-10.5c0-15.1-6-28.6-18.1-39.2c-12.1-10.5-27.1-16.6-43.7-16.6
						c-25.6,0-45.2,10.5-60.3,31.6l-39.2-25.6C1039.3,435.8,1072.5,420.8,1114.7,420.8"/>
					<g id="Group-7" transform="translate(15.084923, 3.759447)">
						<polygon id="Fill-5" class="st1" points="1454.9,423.9 1304.2,768.9 1257.5,768.9 1313.3,648.4 1215.3,423.9 1263.6,423.9 
							1335.9,595.7 1335.9,595.7 1405.2,423.9 						"/>
					</g>
				</g>
				<g id="G">
					<path id="Fill-8" class="st2" d="M663.5,496.5c0-13.6-1.5-27.1-3-40.7H470.7v76.8h108.5c-4.5,25.6-18.1,46.7-40.7,61.8v49.7
						h64.8C640.9,609.5,663.5,556.8,663.5,496.5"/>
					<path id="Fill-10" class="st3" d="M469.2,692.4c54.2,0,99.4-18.1,134.1-48.2l-64.8-49.7c-18.1,12.1-40.7,19.6-67.8,19.6
						c-52.7,0-96.4-34.6-113-82.9h-66.3v51.2C323.1,647.2,390.9,692.4,469.2,692.4"/>
					<path id="Fill-12" class="st4" d="M356.2,529.7c-4.5-12.1-6-25.6-6-39.2c0-13.6,1.5-25.6,6-39.2v-51.2h-66.3
						c-13.6,27.1-21.1,57.2-21.1,90.4s7.5,63.3,21.1,90.4L356.2,529.7z"/>
					<path id="Fill-14" class="st5" d="M469.2,370c30.1,0,55.7,10.5,76.8,30.1l0,0l57.2-57.2c-34.6-33.1-79.8-52.7-134.1-52.7
						c-78.3,0-146.1,45.2-179.3,111.5l66.3,51.2C372.8,406.2,418,370,469.2,370"/>
				</g>
			</g>
		</g>
	</g>
</g>
</svg>
