<!-- Generated by IcoMoon.io -->
<svg version="1.1" xmlns="http://www.w3.org/2000/svg" width="1820" height="1024" viewBox="0 0 1820 1024">
<title></title>
<g id="icomoon-ignore">
</g>
<path fill="#f9f9f9" d="M1716.717 954.596c0 30.341-24.557 54.898-54.898 54.898h-1510.684c-30.341 0-54.898-24.557-54.898-54.898v-893.156c0-30.341 24.557-54.898 54.898-54.898h1510.684c30.341 0 54.898 24.557 54.898 54.898v893.156z"></path>
<path fill="#dfdfdf" d="M1661.819 1016.036h-1510.684c-33.849 0-61.44-27.591-61.44-61.44v-893.156c0-33.849 27.591-61.44 61.44-61.44h1510.684c33.849 0 61.44 27.591 61.44 61.44v893.156c0 33.849-27.591 61.44-61.44 61.44zM151.135 13.084c-26.643 0-48.356 21.713-48.356 48.356v893.156c0 26.643 21.713 48.356 48.356 48.356h1510.684c26.643 0 48.356-21.713 48.356-48.356v-893.156c0-26.643-21.713-48.356-48.356-48.356h-1510.684z"></path>
<path fill="#333e47" d="M761.079 502.708c0-27.117 6.637-50.252 20.006-69.404 13.369-19.247 31.573-33.754 54.708-43.52 21.144-9.007 47.313-15.455 78.317-19.437 10.619-1.138 27.876-2.75 51.769-4.741v-10.050c0-25.126-2.75-42.003-8.249-50.631-8.249-11.757-21.144-17.636-38.874-17.636h-4.741c-12.99 1.138-24.083 5.31-33.564 12.326-9.387 7.016-15.455 16.877-18.204 29.393-1.612 7.87-5.499 12.326-11.757 13.559l-67.698-8.249c-6.637-1.612-10.050-5.12-10.050-10.619 0-1.138 0.19-2.56 0.569-4.077 6.637-34.892 23.040-60.776 49.114-77.653s56.604-26.264 91.496-28.255h14.696c44.753 0 79.644 11.567 104.77 34.702 3.887 3.887 7.585 8.154 10.904 12.61 3.319 4.551 5.973 8.533 7.964 12.041s3.698 8.628 5.31 15.265c1.612 6.637 2.75 11.283 3.508 13.843s1.327 8.059 1.801 16.498c0.379 8.439 0.569 13.464 0.569 14.981v142.412c0 10.24 1.422 19.532 4.456 27.97 2.939 8.439 5.784 14.507 8.533 18.204s7.301 9.671 13.559 17.92c2.37 3.508 3.508 6.637 3.508 9.387 0 3.129-1.612 5.879-4.741 8.249-32.521 28.255-50.252 43.52-53.001 45.89-4.741 3.508-10.43 3.887-17.067 1.138-5.499-4.741-10.335-9.197-14.412-13.559s-7.016-7.49-8.818-9.387c-1.801-1.991-4.646-5.784-8.533-11.473s-6.637-9.481-8.249-11.473c-21.997 23.893-43.52 38.874-64.759 44.753-13.369 3.887-29.867 5.879-49.399 5.879-30.246 0-54.993-9.292-74.43-27.97-19.342-18.394-29.013-44.753-29.013-78.886zM862.341 490.951c0 15.265 3.793 27.591 11.473 36.788s17.92 13.843 30.91 13.843c1.138 0 2.844-0.19 5.025-0.569s3.603-0.569 4.456-0.569c16.498-4.361 29.203-14.886 38.21-31.763 4.361-7.49 7.585-15.644 9.671-24.462 2.181-8.818 3.319-16.024 3.508-21.523s0.284-14.507 0.284-27.117v-14.696c-22.756 0-40.012 1.612-51.769 4.741-34.513 9.766-51.769 31.573-51.769 65.327z"></path>
<path fill="#f8991d" d="M583.964 670.436c1.991-3.129 5.12-3.319 9.387-0.569 98.133 56.889 204.8 85.333 320.19 85.333 76.895 0 152.841-14.317 227.745-42.951 1.991-0.759 4.836-1.991 8.533-3.508 3.698-1.612 6.353-2.75 7.964-3.508 5.879-2.37 10.524-1.138 13.843 3.508 3.319 4.741 2.276 9.007-3.224 12.99-7.016 5.12-16.119 10.999-27.117 17.636-33.754 20.006-71.396 35.556-113.019 46.459-41.624 10.999-82.204 16.498-121.837 16.498-61.25 0-119.087-10.714-173.606-32.047-54.519-21.428-103.348-51.484-146.584-90.359-2.37-1.991-3.508-3.887-3.508-5.879 0-1.233 0.474-2.37 1.233-3.603zM1109.523 680.486c0.759-1.612 1.991-3.129 3.508-4.741 9.766-6.637 19.247-11.188 28.255-13.559 14.886-3.887 29.393-6.068 43.52-6.447 3.887-0.379 7.68-0.19 11.188 0.569 17.636 1.612 28.255 4.551 31.763 8.818 1.612 2.37 2.37 5.879 2.37 10.619v4.077c0 13.748-3.698 29.961-11.188 48.545-7.49 18.679-17.825 33.659-31.194 45.037-1.991 1.612-3.698 2.37-5.31 2.37-0.759 0-1.612-0.19-2.37-0.569-2.37-1.138-2.939-3.319-1.801-6.447 14.507-34.133 21.807-57.837 21.807-71.206 0-4.361-0.759-7.49-2.37-9.387-3.887-4.741-14.886-7.016-32.996-7.016-6.637 0-14.507 0.379-23.514 1.138-9.766 1.138-18.868 2.37-27.117 3.508-2.37 0-3.887-0.379-4.741-1.138-0.759-0.759-0.948-1.612-0.569-2.37 0.19-0.474 0.379-1.043 0.759-1.801z"></path>
</svg>
