<!-- Generated by IcoMoon.io -->
<svg version="1.1" xmlns="http://www.w3.org/2000/svg" width="1641" height="1024" viewBox="0 0 1641 1024">
<title></title>
<g id="icomoon-ignore">
</g>
<path fill="#f9f9f9" stroke="#dfdfdf" stroke-width="13.1282" stroke-miterlimit="1.41421" stroke-linecap="butt" stroke-linejoin="round" d="M1626.978 954.591c0 30.313-24.563 54.876-54.889 54.876h-1510.636c-30.326 0-54.889-24.563-54.889-54.876v-893.125c0-30.339 24.563-54.902 54.889-54.902h1510.636c30.326 0 54.889 24.563 54.889 54.902v893.125z"></path>
<path fill="#f90" d="M1315.045 500.904c0.047 163.424-132.399 295.931-295.822 295.972-163.428 0.041-295.931-132.398-295.975-295.822v-0.15c-0.043-163.421 132.403-295.934 295.822-295.977 163.423-0.043 295.933 132.403 295.974 295.827v0.15z"></path>
<path fill="#c00" d="M620.317 205.004c-162.456 1.032-293.994 133.201-293.994 295.9 0 163.334 132.563 295.895 295.9 295.895 76.659 0 146.536-29.213 199.117-77.096-0.004 0-0.010-0.006-0.023-0.014h0.063c10.767-9.812 20.808-20.398 30.039-31.685h-60.622c-8.095-9.778-15.452-19.967-22.061-30.48h104.555c6.359-10.176 12.116-20.742 17.225-31.685h-139.042c-4.739-10.159-8.853-20.548-12.366-31.088h163.788c9.87-29.495 15.229-61.050 15.229-93.851 0-21.747-2.36-42.95-6.821-63.364h-180.882c2.241-10.506 5.070-20.885 8.443-31.084h163.848c-3.664-10.854-7.918-21.43-12.757-31.682h-138.498c4.996-10.673 10.656-21.056 16.978-31.081h104.478c-6.953-11.077-14.647-21.66-22.966-31.685h-58.251c9.007-10.6 18.922-20.582 29.685-29.889-52.584-47.889-122.481-77.11-199.157-77.11-0.638 0-1.269-0.004-1.907 0v-0.001z"></path>
<path fill="#fcb340" d="M1285.359 655.592c1.608 0 3.176 0.417 4.708 1.239 1.538 0.821 2.718 2.007 3.575 3.547 0.851 1.523 1.28 3.129 1.28 4.793 0 1.643-0.423 3.233-1.268 4.756-0.834 1.519-2.019 2.705-3.54 3.55-1.509 0.832-3.1 1.252-4.755 1.252s-3.246-0.421-4.761-1.252c-1.52-0.848-2.7-2.027-3.552-3.55-0.845-1.523-1.262-3.112-1.262-4.756 0-1.663 0.429-3.269 1.286-4.793 0.863-1.54 2.049-2.715 3.575-3.547 1.544-0.821 3.111-1.239 4.714-1.239v0zM1285.359 657.178c-1.338 0-2.648 0.348-3.927 1.038-1.268 0.692-2.26 1.67-2.976 2.966-0.722 1.276-1.086 2.598-1.086 3.988 0 1.376 0.358 2.705 1.057 3.967 0.71 1.259 1.702 2.248 2.964 2.956 1.274 0.704 2.589 1.052 3.968 1.052s2.7-0.348 3.968-1.052c1.262-0.708 2.248-1.697 2.953-2.956 0.699-1.262 1.045-2.588 1.045-3.967 0-1.389-0.352-2.715-1.074-3.988-0.71-1.296-1.702-2.274-2.982-2.966-1.268-0.694-2.571-1.038-3.91-1.038zM1281.167 670.453v-10.292h3.546c1.203 0 2.078 0.093 2.618 0.294 0.54 0.19 0.969 0.514 1.297 0.992 0.317 0.471 0.481 0.972 0.481 1.506 0 0.755-0.27 1.409-0.81 1.964-0.528 0.554-1.245 0.872-2.137 0.939 0.364 0.15 0.657 0.34 0.886 0.548 0.417 0.401 0.916 1.079 1.515 2.037l1.256 2.014h-2.025l-0.91-1.62c-0.716-1.276-1.291-2.070-1.738-2.398-0.305-0.231-0.751-0.35-1.327-0.35h-0.98v4.378h-1.667l-0.006-0.011zM1282.828 664.659h2.019c0.957 0 1.608-0.147 1.961-0.431 0.352-0.294 0.534-0.668 0.534-1.142 0-0.307-0.082-0.581-0.252-0.815-0.176-0.244-0.411-0.417-0.71-0.541-0.299-0.117-0.851-0.184-1.661-0.184h-1.884v3.112l-0.006 0.001z"></path>
<path fill="#006" d="M720.416 585.795l3.941-26.783c-2.154 0-5.32 0.932-8.119 0.932-10.967 0-12.336-5.861-11.475-10.142l10.807-53.867h16.671l3.436-30.4h-15.712l3.199-18.421h-32.868c-0.694 0.694-18.595 103.599-18.595 116.136 0 18.551 10.413 26.807 25.1 26.676 11.495-0.097 20.454-3.279 23.614-4.131z"></path>
<path fill="#006" d="M730.391 534.74c0 44.523 29.385 55.099 54.425 55.099 23.113 0 35.232-5.357 35.232-5.357l5.55-30.39c0 0-19.53 7.941-35.403 7.941-33.833 0-27.902-25.227-27.902-25.227l64.998 0.197c0 0 4.138-20.408 4.138-28.727 0-20.762-11.311-46.249-45.902-46.249-31.679 0.006-55.136 34.14-55.136 72.712zM785.647 490.241c17.78 0 14.5 19.984 14.5 21.603h-34.978c0-2.070 3.303-21.603 20.478-21.603z"></path>
<path fill="#006" d="M985.146 585.785l5.641-34.344c0 0-15.468 7.751-26.076 7.751-22.348 0-31.318-17.065-31.318-35.403 0-37.192 19.231-57.657 40.64-57.657 16.055 0 28.935 9.013 28.935 9.013l5.142-33.372c0 0-15.21-10.984-31.576-11.047-49.246-0.194-77.419 34.090-77.419 93.357 0 39.283 20.865 66.016 58.464 66.016 10.625 0 27.567-4.315 27.567-4.315v0.001z"></path>
<path fill="#006" d="M547.13 462.519c-21.603 0-38.161 6.943-38.161 6.943l-4.575 27.141c0 0 13.669-5.554 34.334-5.554 11.732 0 20.315 1.319 20.315 10.854 0 5.791-1.048 7.928-1.048 7.928s-9.257-0.771-13.545-0.771c-30.757 0-55.867 11.628-55.867 46.687 0 27.628 18.778 33.963 30.416 33.963 22.231 0 31.031-14.036 31.539-14.076l-0.257 11.648h27.742l12.376-86.761c0-36.818-32.113-38.001-43.267-38.001h-0.001zM551.933 532.971c0.605 5.297-1.369 30.343-20.345 30.343-9.785 0-12.326-7.481-12.326-11.896 0-8.629 4.686-18.979 27.768-18.979 5.377 0 3.998 0.387 4.902 0.531h0.001z"></path>
<path fill="#006" d="M619.882 589.068c7.097 0 47.662 1.807 47.662-40.055 0-39.143-37.55-31.405-37.55-47.134 0-7.821 6.122-10.286 17.312-10.286 4.439 0 21.53 1.412 21.53 1.412l3.971-27.818c0 0.004-11.061-2.474-29.067-2.474-23.307 0-46.964 9.304-46.964 41.137 0 36.074 39.447 32.45 39.447 47.645 0 10.142-11.020 10.977-19.516 10.977-14.697 0-27.928-5.046-27.975-4.802l-4.204 27.535c0.765 0.234 8.93 3.864 35.356 3.864l0.001 0.001z"></path>
<path fill="#006" d="M1245.018 437.282l-5.694 42.442c0 0-11.864-16.38-30.432-16.38-34.928 0-52.927 34.808-52.927 74.792 0 25.815 12.838 51.118 39.067 51.118 18.873 0 29.34-13.161 29.34-13.161l-1.391 11.237h30.655l24.068-149.819-32.686-0.23zM1231.487 519.772c0 16.641-8.242 38.872-25.319 38.872-11.341 0-16.654-9.521-16.654-24.459 0-24.429 10.966-40.542 24.82-40.542 11.33 0 17.153 7.781 17.153 26.129v-0.001z"></path>
<path fill="#006" d="M376.543 587.455l19.179-113.111 2.818 113.111h21.704l40.492-113.111-17.937 113.111h32.253l24.836-150.019-51.235-0.391-30.477 91.851-0.835-91.46h-46.954l-25.194 150.019 31.349 0.001z"></path>
<path fill="#006" d="M861.953 587.669c9.171-52.147 12.436-93.33 39.179-84.801 3.84-20.184 12.995-37.737 17.175-46.28 0 0-1.321-1.967-9.586-1.967-14.111 0-32.949 28.634-32.949 28.634l2.815-17.703h-29.341l-19.65 122.114 32.357 0.004z"></path>
<path fill="#006" d="M1051.134 462.519c-21.614 0-38.169 6.943-38.169 6.943l-4.573 27.141c0 0 13.672-5.554 34.329-5.554 11.735 0 20.317 1.319 20.317 10.854 0 5.791-1.045 7.928-1.045 7.928s-9.257-0.771-13.543-0.771c-30.76 0-55.868 11.628-55.868 46.687 0 27.628 18.773 33.963 30.414 33.963 22.225 0 31.030-14.036 31.535-14.076l-0.264 11.648h27.749l12.375-86.761c0.006-36.818-32.11-38.001-43.258-38.001v0zM1055.93 532.971c0.599 5.297-1.374 30.343-20.346 30.343-9.792 0-12.328-7.481-12.328-11.896 0-8.629 4.684-18.979 27.766-18.979 5.383 0 4.004 0.387 4.908 0.531z"></path>
<path fill="#006" d="M1126.326 587.669c5.037-38.365 14.359-92.225 39.178-84.801 3.839-20.184 0.135-20.131-8.124-20.131-14.124 0-17.247 0.514-17.247 0.514l2.818-17.703h-29.34l-19.648 122.117 32.363 0.004z"></path>
<path fill="#fff" d="M728.628 576.241l3.944-26.78c-2.154 0-5.323 0.922-8.119 0.922-10.967 0-12.176-5.831-11.478-10.142l8.86-54.642h16.668l4.024-29.621h-15.716l3.199-18.421h-31.505c-0.694 0.694-18.598 103.602-18.598 116.133 0 18.551 10.416 26.813 25.103 26.68 11.502-0.097 20.458-3.279 23.617-4.127v-0.001z"></path>
<path fill="#fff" d="M738.61 525.183c0 44.523 29.388 55.103 54.425 55.103 23.11 0 33.279-5.166 33.279-5.166l5.55-30.386c0 0-17.579 7.745-33.455 7.745-33.829 0-27.905-25.223-27.905-25.223h64.025c0 0 4.134-20.415 4.134-28.733 0-20.759-10.332-46.052-44.924-46.052-31.679 0.006-55.129 34.14-55.129 72.715l-0.001-0.001zM793.859 480.683c17.78 0 14.5 19.981 14.5 21.597h-34.978c0-2.064 3.306-21.597 20.478-21.597z"></path>
<path fill="#fff" d="M993.364 576.228l5.635-34.347c0 0-15.456 7.751-26.070 7.751-22.342 0-31.306-17.065-31.306-35.399 0-37.192 19.225-57.654 40.634-57.654 16.049 0 28.935 9.013 28.935 9.013l5.142-33.372c0 0-19.102-7.731-35.48-7.731-36.372 0-71.753 31.552-71.753 90.809 0 39.293 19.102 65.245 56.701 65.245 10.631 0.004 27.561-4.315 27.561-4.315v0z"></path>
<path fill="#fff" d="M555.349 452.958c-21.603 0-38.165 6.943-38.165 6.943l-4.572 27.141c0 0 13.669-5.554 34.331-5.554 11.732 0 20.315 1.319 20.315 10.854 0 5.791-1.052 7.928-1.052 7.928s-9.254-0.775-13.539-0.775c-27.248 0-55.87 11.628-55.87 46.687 0 27.624 18.778 33.963 30.416 33.963 22.228 0 31.809-14.423 32.32-14.467l-1.038 12.039h27.742l12.376-86.765c0-36.808-32.11-37.994-43.264-37.994zM562.098 523.603c0.601 5.3-3.323 30.143-22.291 30.143-9.785 0-12.329-7.474-12.329-11.896 0-8.623 4.686-18.975 27.772-18.975 5.37 0.006 5.944 0.581 6.849 0.728h-0.001z"></path>
<path fill="#fff" d="M628.098 579.511c7.097 0 47.666 1.803 47.666-40.058 0-39.136-37.553-31.405-37.553-47.128 0-7.828 6.122-10.292 17.309-10.292 4.441 0 21.53 1.412 21.53 1.412l3.974-27.818c0 0.004-11.061-2.474-29.067-2.474-23.307 0-46.964 9.304-46.964 41.137 0 36.071 39.447 32.45 39.447 47.645 0 10.142-11.020 10.967-19.513 10.967-14.697 0-27.932-5.043-27.979-4.802l-4.201 27.538c0.761 0.234 8.923 3.874 35.353 3.874z"></path>
<path fill="#fff" d="M1254.334 427.996l-6.798 42.169c0 0-11.858-16.38-30.426-16.38-28.864 0-52.927 34.805-52.927 74.796 0 25.815 12.832 51.109 39.073 51.109 18.867 0 29.334-13.158 29.334-13.158l-1.391 11.237h30.649l24.068-149.822-31.582 0.050zM1239.699 510.215c0 16.641-8.236 38.869-25.319 38.869-11.336 0-16.648-9.518-16.648-24.456 0-24.426 10.966-40.542 24.808-40.542 11.341-0.004 17.159 7.788 17.159 26.129z"></path>
<path fill="#fff" d="M384.762 577.898l19.179-113.111 2.815 113.111h21.707l40.492-113.111-17.937 113.111h32.253l24.84-150.022h-49.876l-31.061 92.048-1.616-92.048h-45.976l-25.197 150.022h30.376z"></path>
<path fill="#fff" d="M870.171 578.104c9.171-52.15 10.87-94.496 32.754-86.745 3.83-20.184 7.527-27.992 11.707-36.534 0 0-1.961-0.411-6.076-0.411-14.107 0-24.56 19.276-24.56 19.276l2.808-17.703h-29.334l-19.653 122.117h32.354z"></path>
<path fill="#fff" d="M1066.062 452.958c-21.603 0-38.169 6.943-38.169 6.943l-4.567 27.141c0 0 13.672-5.554 34.329-5.554 11.735 0 20.311 1.319 20.311 10.854 0 5.791-1.045 7.928-1.045 7.928s-9.257-0.775-13.543-0.775c-27.244 0-55.868 11.628-55.868 46.687 0 27.624 18.773 33.963 30.414 33.963 22.225 0 31.811-14.423 32.316-14.467l-1.033 12.039h27.743l12.375-86.765c0-36.808-32.11-37.994-43.264-37.994zM1072.819 523.603c0.599 5.3-3.328 30.143-22.301 30.143-9.786 0-12.322-7.474-12.322-11.896 0-8.623 4.684-18.975 27.766-18.975 5.371 0.006 5.941 0.581 6.856 0.728z"></path>
<path fill="#fff" d="M1134.68 578.104c9.175-52.15 10.872-94.496 32.75-86.745 3.839-20.184 7.537-27.992 11.717-36.534 0 0-1.961-0.411-6.076-0.411-14.112 0-24.561 19.276-24.561 19.276l2.806-17.703h-29.334l-19.654 122.117h32.351z"></path>
<path fill="#fff" d="M1285.235 559.263c1.597 0 3.176 0.411 4.69 1.246 1.538 0.808 2.73 1.997 3.581 3.537 0.863 1.53 1.28 3.122 1.28 4.789 0 1.647-0.417 3.236-1.262 4.756-0.839 1.519-2.019 2.711-3.54 3.55-1.515 0.835-3.105 1.256-4.755 1.256-1.661 0-3.252-0.421-4.773-1.256-1.515-0.845-2.689-2.031-3.534-3.55-0.851-1.519-1.268-3.109-1.268-4.756 0-1.667 0.423-3.259 1.28-4.789 0.863-1.54 2.055-2.721 3.581-3.537 1.544-0.835 3.117-1.246 4.72-1.246v0zM1285.235 560.839c-1.344 0-2.653 0.348-3.927 1.045-1.28 0.682-2.272 1.667-2.988 2.956-0.716 1.272-1.074 2.605-1.074 3.988s0.346 2.705 1.045 3.967c0.71 1.259 1.702 2.248 2.976 2.959 1.262 0.694 2.583 1.045 3.968 1.045 1.374 0 2.7-0.35 3.962-1.045 1.262-0.711 2.254-1.7 2.953-2.959 0.704-1.272 1.051-2.585 1.051-3.967s-0.358-2.715-1.074-3.988c-0.71-1.289-1.702-2.274-2.982-2.956-1.274-0.694-2.571-1.045-3.915-1.045h0.006zM1281.044 574.117v-10.296h3.54c1.209 0 2.090 0.097 2.624 0.294 0.54 0.184 0.963 0.514 1.297 0.992 0.323 0.474 0.487 0.972 0.487 1.506 0 0.751-0.276 1.409-0.816 1.964-0.528 0.554-1.239 0.875-2.125 0.935 0.352 0.154 0.646 0.338 0.875 0.544 0.411 0.407 0.916 1.089 1.515 2.041l1.262 2.017h-2.037l-0.904-1.62c-0.722-1.279-1.297-2.074-1.738-2.398-0.305-0.237-0.751-0.354-1.333-0.354h-0.974v4.378l-1.673-0.004zM1282.705 568.323h2.019c0.963 0 1.614-0.144 1.961-0.431 0.352-0.281 0.534-0.665 0.534-1.142 0-0.304-0.082-0.578-0.252-0.808-0.17-0.247-0.405-0.424-0.71-0.548-0.305-0.117-0.845-0.177-1.661-0.177h-1.89v3.107z"></path>
</svg>
